<?xml version="1.0" encoding="utf-8"?>
<!-- Generator: Adobe Illustrator 22.0.1, SVG Export Plug-In . SVG Version: 6.00 Build 0)  -->
<svg version="1.1" id="Layer_1" xmlns="http://www.w3.org/2000/svg" xmlns:xlink="http://www.w3.org/1999/xlink" x="0px" y="0px"
	 viewBox="0 0 236 79" style="enable-background:new 0 0 236 79;" xml:space="preserve">
<style type="text/css">
	.st0{fill:#7FBF7D;}
	.st1{filter:url(#Adobe_OpacityMaskFilter);}
	.st2{fill:#FFFFFF;}
	.st3{mask:url(#mask-2_1_);}
	.st4{fill:none;stroke:#7FBF7D;stroke-width:2.6783;}
	.st5{fill:none;stroke:#7FBF7D;stroke-width:2.0121;}
	.st6{fill:none;stroke:#7FBF7D;stroke-width:1.9073;}
	.st7{fill:none;stroke:#7FBF7D;stroke-width:1.5;}
</style>
<title>mb-bar-logo</title>
<desc>Created with Sketch.</desc>
<g id="Page-1">
	<g id="mb-bar-logo">
		<path id="minerbytes" class="st0" d="M43.4,46.8l2.9-0.5V32.7l-2.9-0.5V30h6l0.2,2.5c0.6-0.9,1.4-1.6,2.4-2.1
			c1-0.5,2.1-0.7,3.3-0.7c1.3,0,2.4,0.3,3.3,0.9c0.9,0.6,1.6,1.5,2,2.6c0.6-1.1,1.4-1.9,2.4-2.6c1-0.6,2.1-0.9,3.4-0.9
			c1.9,0,3.5,0.7,4.6,2c1.1,1.3,1.7,3.3,1.7,6v8.7l2.9,0.5V49h-9.2v-2.2l2.9-0.5v-8.7c0-1.9-0.3-3.2-1-4s-1.6-1.2-2.9-1.2
			c-1.2,0-2.2,0.4-2.9,1.3c-0.7,0.8-1.2,1.9-1.3,3.2v9.4l2.9,0.5V49h-9.2v-2.2l2.9-0.5v-8.7c0-1.8-0.3-3.1-1-3.9s-1.6-1.2-2.9-1.2
			c-1.1,0-1.9,0.2-2.6,0.7s-1.2,1-1.6,1.8v11.4l2.9,0.5V49h-9.2L43.4,46.8L43.4,46.8z M78.1,46.8l2.9-0.5V32.7l-2.9-0.5V30h6.3v16.3
			l2.9,0.5V49h-9.2L78.1,46.8L78.1,46.8z M84.5,25.1H81v-3.5h3.5V25.1z M89.5,46.8l2.9-0.5V32.7l-2.9-0.5V30h6l0.2,2.8
			c0.6-1,1.4-1.8,2.4-2.3c1-0.6,2-0.8,3.3-0.8c2.1,0,3.6,0.6,4.8,1.8c1.1,1.2,1.7,3.1,1.7,5.6v9.3l2.9,0.5V49h-9.2v-2.2l2.9-0.5
			v-9.2c0-1.7-0.3-2.9-1-3.6c-0.7-0.7-1.7-1.1-3-1.1c-1,0-1.9,0.2-2.6,0.7c-0.8,0.5-1.4,1.1-1.8,2v11.2l2.9,0.5V49h-9.2L89.5,46.8
			L89.5,46.8z M121.8,49.4c-2.6,0-4.8-0.9-6.3-2.6s-2.3-4.1-2.3-6.9v-0.8c0-2.7,0.8-5,2.4-6.8c1.6-1.8,3.5-2.7,5.7-2.7
			c2.6,0,4.5,0.8,5.8,2.3c1.3,1.5,2,3.6,2,6.2v2.2h-12.3l-0.1,0.1c0,1.8,0.5,3.3,1.4,4.5c0.9,1.2,2.1,1.8,3.7,1.8
			c1.2,0,2.2-0.2,3.1-0.5c0.9-0.3,1.6-0.8,2.3-1.4l1.4,2.3c-0.7,0.7-1.6,1.2-2.7,1.7C124.7,49.2,123.4,49.4,121.8,49.4L121.8,49.4z
			 M121.3,32.4c-1.2,0-2.2,0.5-3,1.5s-1.3,2.2-1.5,3.7l0,0.1h8.8v-0.5c0-1.4-0.4-2.5-1.1-3.4C123.8,32.8,122.7,32.4,121.3,32.4
			L121.3,32.4z M132.5,32.2V30h6l0.3,2.8c0.5-1,1.2-1.7,2-2.3c0.8-0.6,1.7-0.8,2.7-0.8c0.3,0,0.5,0,0.8,0.1s0.5,0.1,0.7,0.1
			l-0.5,3.2l-2-0.1c-0.9,0-1.7,0.2-2.3,0.6s-1.1,1-1.4,1.8v10.9l2.9,0.5V49h-9.2v-2.2l2.9-0.5V32.7L132.5,32.2L132.5,32.2z
			 M163.1,39.9c0,2.9-0.6,5.3-1.9,7s-3,2.6-5.2,2.6c-1.5,0-2.8-0.3-3.9-0.9c-1.1-0.6-2-1.4-2.6-2.5l-0.1,3h-0.8V22.5h-2.9v-0.9h3.8
			v11.9c0.6-1.2,1.5-2.1,2.6-2.8s2.4-1,3.9-1c2.2,0,4,0.9,5.3,2.7c1.3,1.8,1.9,4.2,1.9,7.2L163.1,39.9L163.1,39.9z M162.1,39.5
			c0-2.6-0.5-4.8-1.6-6.4c-1.1-1.6-2.6-2.5-4.6-2.5c-1.9,0-3.3,0.5-4.3,1.4c-1,0.9-1.7,2.1-2.2,3.5v8.7c0.5,1.3,1.2,2.3,2.3,3.1
			c1.1,0.8,2.5,1.2,4.2,1.2c2,0,3.5-0.8,4.6-2.3c1-1.5,1.6-3.6,1.6-6.3V39.5L162.1,39.5z M171.5,30.9H169l5.9,14.6l0.7,1.9h0.1
			l0.1-0.3l6.2-16.2h-2.5V30h5.6v0.9h-2.1L175,52.2c-0.5,1.3-1.1,2.4-1.8,3.3c-0.7,0.8-1.8,1.3-3.3,1.3c-0.2,0-0.5,0-0.7-0.1
			s-0.5-0.1-0.6-0.1l0.2-0.9c0.1,0,0.3,0.1,0.6,0.1s0.5,0.1,0.6,0.1c1.1,0,1.9-0.3,2.5-0.9c0.6-0.6,1.1-1.6,1.6-2.8l1.1-3.1l-7.2-18
			h-2.1V30h5.6L171.5,30.9L171.5,30.9z M191.4,24.9V30h4.7v1h-4.7v13.1c0,1.6,0.3,2.7,0.8,3.3c0.5,0.7,1.2,1,2.1,1c0.4,0,0.7,0,1,0
			s0.7-0.1,1.2-0.1l0.2,0.9c-0.4,0.1-0.7,0.2-1.1,0.2c-0.4,0-0.8,0.1-1.3,0.1c-1.3,0-2.2-0.4-2.9-1.2s-1-2.2-1-4V31h-3.5v-1h3.5
			v-5.1L191.4,24.9L191.4,24.9z M208.4,49.4c-2.2,0-4-0.9-5.6-2.6c-1.6-1.8-2.4-3.9-2.4-6.5v-1.1c0-2.7,0.8-5,2.3-6.8
			s3.4-2.7,5.6-2.7c2.1,0,3.9,0.7,5.2,2.1c1.4,1.4,2,3.3,2,5.7v1.5h-14.3v0.2v1.1c0,2.3,0.7,4.2,2,5.8s3,2.4,5,2.4
			c1.4,0,2.6-0.2,3.6-0.6c1-0.4,1.8-1,2.5-1.7l0.5,0.7c-0.8,0.8-1.7,1.5-2.7,1.9S209.8,49.4,208.4,49.4L208.4,49.4z M208.3,30.6
			c-1.9,0-3.5,0.7-4.7,2.1c-1.3,1.4-2,3.1-2.1,5.2l0.1,0.1h13.1v-0.6c0-1.9-0.6-3.5-1.8-4.8C211.7,31.2,210.2,30.6,208.3,30.6
			L208.3,30.6z M232.8,35.8h-0.9v-3.1c-0.6-0.7-1.4-1.2-2.3-1.6c-0.9-0.4-2-0.5-3.3-0.5c-1.8,0-3.1,0.4-4,1.2
			c-0.9,0.8-1.4,1.7-1.4,2.7c0,1,0.4,1.8,1.2,2.5c0.8,0.7,2.3,1.3,4.6,1.8c2.1,0.5,3.7,1.2,4.8,2c1.1,0.8,1.6,2,1.6,3.6
			c0,1.5-0.6,2.7-1.8,3.6s-2.8,1.4-4.9,1.4c-1.4,0-2.7-0.2-3.8-0.7c-1.2-0.4-2.1-1.1-2.9-1.8v-3.4h0.9v2.9c0.7,0.7,1.5,1.3,2.6,1.6
			c1,0.3,2.1,0.5,3.2,0.5c1.8,0,3.2-0.4,4.2-1.2s1.5-1.8,1.5-2.8c0-1-0.4-1.9-1.3-2.8s-2.4-1.5-4.5-1.9c-2.2-0.5-3.9-1.1-4.9-1.9
			c-1-0.8-1.5-1.9-1.5-3.3c0-1.4,0.6-2.5,1.7-3.4c1.1-0.9,2.7-1.4,4.6-1.4c1.4,0,2.6,0.2,3.8,0.7s2.1,1.1,2.8,1.9L232.8,35.8
			L232.8,35.8z"/>
		<defs>
			<filter id="Adobe_OpacityMaskFilter" filterUnits="userSpaceOnUse" x="3.6" y="6.1" width="66.9" height="66.8">
				<feColorMatrix  type="matrix" values="1 0 0 0 0  0 1 0 0 0  0 0 1 0 0  0 0 0 1 0"/>
			</filter>
		</defs>
		<mask maskUnits="userSpaceOnUse" x="3.6" y="6.1" width="66.9" height="66.8" id="mask-2_1_">
			<g class="st1">
				<path id="path-1_1_" class="st2" d="M71.6,30.2V0h-69v77h69V50.2h-28v-6.1h-0.1v-1.8l0.1,0v-9.9h2.8v-1.8l-2.9-0.4v-1.8h6l0.2,2
					c0.6-0.7,1.4-1.3,2.4-1.7c1-0.4,2.1-0.6,3.3-0.6s2.4,0.2,3.3,0.7s1.6,1.2,2,2.2c0.6-0.9,1.4-1.6,2.4-2.1c1-0.5,2.1-0.8,3.4-0.8
					c1.9,0,3.5,0.5,4.6,1.6C71.3,29.9,71.4,30.1,71.6,30.2L71.6,30.2z M49.9,32.4h7.6c-0.2-0.4-0.4-0.7-0.6-1c-0.7-0.7-1.6-1-2.9-1
					c-1.1,0-1.9,0.2-2.6,0.5C50.7,31.3,50.2,31.8,49.9,32.4L49.9,32.4z M61.9,32.4H69c-0.2-0.4-0.4-0.7-0.6-1c-0.6-0.6-1.6-1-2.9-1
					c-1.2,0-2.2,0.4-2.9,1.1C62.3,31.8,62.1,32.1,61.9,32.4z"/>
			</g>
		</mask>
		<g id="Group" class="st3">
			<path id="path5377-10-7" class="st4" d="M44.7,67.8c-19.7,5.3-13.9,6.8-28.3-7.6C1.9,45.8,3.5,51.6,8.7,31.9s1-15.4,20.7-20.7
				c19.7-5.3,13.9-6.8,28.3,7.6c14.4,14.4,12.9,8.6,7.6,28.3C60.1,66.8,64.4,62.5,44.7,67.8z"/>
			<path id="path5432-0-9" class="st5" d="M37.2,64.4C19.9,64.5,24.4,67,15.6,52.1C6.9,37.2,7,42.3,15.5,27.2s4.2-12.4,21.4-12.5
				c17.3-0.1,12.9-2.6,21.6,12.3c8.7,14.9,8.7,9.8,0.1,24.8C50.1,66.8,54.5,64.3,37.2,64.4z"/>
			<path id="path5434-6-5" class="st6" d="M31.6,59.8C17.5,56,20.5,59,16.7,44.9c-3.7-14.1-4.9-10,5.5-20.3
				c10.4-10.3,6.2-9.2,20.3-5.4C56.7,23,53.7,20,57.4,34.1c3.7,14.1,4.9,10-5.5,20.3C41.5,64.7,45.7,63.6,31.6,59.8z"/>
			<path id="path5436-4-6" class="st7" d="M28.2,54.9c-10.7-6.2-8.9-3.1-8.9-15.4c0-12.4-1.8-9.2,8.9-15.4s7.1-6.2,17.8,0.1
				c10.7,6.2,8.9,3.1,8.9,15.4c0,12.4,1.8,9.2-8.9,15.4S38.9,61.1,28.2,54.9z"/>
		</g>
	</g>
</g>
</svg>
